<svg xmlns="http://www.w3.org/2000/svg" width="190" height="49" fill="none"><g fill="#fff" clip-path="url(#a)"><path d="M45.376 43.75h-8.432L35.792 49h-9.434l9.043-35h11.66l9.042 35H46.47l-1.095-5.25Zm-1.482-6.742L41.21 24.412l-2.798 12.596h5.48ZM83.125 14v35h-8.211l-7.838-18.375V49h-8.77V14h8.22l7.838 18.699V14h8.761ZM108.727 20.816h-6.796V49h-9.57V20.816h-6.764V14h23.13v6.816ZM128.017 43.75h-8.44L118.425 49h-9.426l9.043-35h11.673l9.042 35h-9.645l-1.095-5.25Zm-1.478-6.76-2.687-12.578-2.793 12.596 5.48-.017ZM154.982 25.992v-4.524c0-.818-.44-1.199-1.372-1.199h-1.971c-.932 0-1.372.381-1.372 1.2v20.063c0 .818.44 1.199 1.372 1.199h1.971c.932 0 1.372-.381 1.372-1.2V35.7h-2.74v-6.055h12.315v12.596c0 4.086-2.199 6.759-8.053 6.759h-7.785c-5.863 0-8.057-2.673-8.057-6.76V20.76c0-4.087 2.199-6.76 8.057-6.76h7.785c5.862 0 8.053 2.673 8.053 6.76v5.25l-9.575-.018ZM190 42.184V49h-21.595V14h21.111v6.816h-11.519v7.14h9.918v6.817h-9.918v7.41H190Z"/><path d="m18.472 0-6.747 37.389-2.05-12.014H0L6.188 49h11.128l9.953-40.25H190L18.472 0Z"/></g><defs><clipPath id="a"><path fill="#fff" d="M0 0h190v49H0z"/></clipPath></defs></svg>